<svg width="700" height="682" viewBox="0 0 700 682" fill="none" xmlns="http://www.w3.org/2000/svg">
<path d="M349.688 0.609374C156.484 0.531249 0 156.937 0 349.984C0 502.641 97.8906 632.406 234.219 680.062C252.578 684.672 249.766 671.625 249.766 662.719V602.172C143.75 614.594 139.453 544.437 132.344 532.719C117.969 508.187 83.9844 501.937 94.1406 490.219C118.281 477.797 142.891 493.344 171.406 535.453C192.031 566 232.266 560.844 252.656 555.766C257.109 537.406 266.641 521 279.766 508.266C169.922 488.578 124.141 421.547 124.141 341.859C124.141 303.187 136.875 267.641 161.875 238.969C145.938 191.703 163.359 151.234 165.703 145.219C211.094 141.156 258.281 177.719 261.953 180.609C287.734 173.656 317.188 169.984 350.156 169.984C383.281 169.984 412.813 173.812 438.828 180.844C447.656 174.125 491.406 142.719 533.594 146.547C535.859 152.562 552.891 192.094 537.891 238.734C563.203 267.484 576.094 303.344 576.094 342.094C576.094 421.938 530 489.047 419.844 508.422C429.279 517.701 436.771 528.767 441.881 540.973C446.992 553.18 449.619 566.282 449.609 579.516V667.406C450.234 674.437 449.609 681.391 461.328 681.391C599.688 634.75 699.297 504.047 699.297 350.062C699.297 156.937 542.734 0.609374 349.688 0.609374V0.609374Z" fill="url(#paint0_linear)"/>
<defs>
<linearGradient id="paint0_linear" x1="584" y1="73.6667" x2="38.0001" y2="737" gradientUnits="userSpaceOnUse">
<stop stop-color="#333333"/>
<stop offset="1" stop-color="#333333" stop-opacity="0"/>
</linearGradient>
</defs>
</svg>
